<svg width="23" height="16" viewBox="0 0 23 16" fill="none" xmlns="http://www.w3.org/2000/svg">
<path d="M1.71484 9C1.16256 9 0.714844 8.55228 0.714844 8C0.714844 7.44772 1.16256 7 1.71484 7L1.71484 9ZM22.551 7.29289C22.9415 7.68342 22.9415 8.31658 22.551 8.7071L16.187 15.0711C15.7965 15.4616 15.1633 15.4616 14.7728 15.0711C14.3823 14.6805 14.3823 14.0474 14.7728 13.6569L20.4297 8L14.7728 2.34314C14.3823 1.95262 14.3823 1.31946 14.7728 0.928931C15.1633 0.538407 15.7965 0.538407 16.187 0.928931L22.551 7.29289ZM1.71484 7L21.8439 7L21.8439 9L1.71484 9L1.71484 7Z" fill="#1E1B1B"/>
</svg>